<!-- search.svg -->
<svg xmlns="http://www.w3.org/2000/svg" viewBox="0 0 24 24" width="24" height="24" fill="currentColor">
  <path d="M10 2C5.58172 2 2 5.58172 2 10C2 14.4183 5.58172 18 10 18C12.1217 18 14.1566 17.1571 15.6569 15.6569C17.1571 14.1566 18 12.1217 18 10C18 5.58172 14.4183 2 10 2ZM10 16C6.68629 16 4 13.3137 4 10C4 6.68629 6.68629 4 10 4C13.3137 4 16 6.68629 16 10C16 13.3137 13.3137 16 10 16Z" />
  <path d="M20.2929 20.7071C19.9024 21.0976 19.2696 21.0976 18.8791 20.7071L14.8791 16.7071C14.4886 16.3166 14.4886 15.6834 14.8791 15.2929C15.2696 14.9024 15.9024 14.9024 16.2929 15.2929L20.2929 19.2929C20.6834 19.6834 20.6834 20.3166 20.2929 20.7071Z" />
</svg>
